<svg width="18" height="16" viewBox="0 0 18 16" fill="none" xmlns="http://www.w3.org/2000/svg">
<path d="M12.75 0.5C11.3 0.5 9.90835 1.175 9.00002 2.24167C8.09169 1.175 6.70002 0.5 5.25002 0.5C2.68335 0.5 0.666687 2.51667 0.666687 5.08333C0.666687 8.23333 3.50002 10.8 7.79169 14.7L8.32709 15.1837C8.7089 15.5287 9.29015 15.5276 9.67065 15.1812L10.2083 14.6917C14.5 10.8 17.3333 8.23333 17.3333 5.08333C17.3333 2.51667 15.3167 0.5 12.75 0.5ZM9.08335 13.4583L9.00002 13.5417L9.64082 13.4998C5.67415 9.90814 11 15.9083 11 13.5C11 11.8333 7.41668 13.4583 9.08335 13.4583C10.0963 13.4583 8.67033 13.2219 9.26063 14C9.5435 14.3728 8.61536 14.5 9.08335 14.5C9.55398 14.5 9.38652 13.8752 9.67065 13.5C8.66025 13.5 10.2575 12.7252 9.67065 13.5C11.3374 13.5 9.08335 12.3333 9.08335 14C9.08335 16.4083 13.05 9.86667 9.08335 13.4583Z" fill="black"/>
</svg>
