<svg width="32" height="32" viewBox="0 0 32 32" fill="none" xmlns="http://www.w3.org/2000/svg">
<mask id="mask0_10_526" style="mask-type:alpha" maskUnits="userSpaceOnUse" x="5" y="6" width="20" height="20">
<path fill-rule="evenodd" clip-rule="evenodd" d="M19.5057 6.62793H10.9182C8.00197 6.62793 5.62941 9.00061 5.62941 11.9169V20.5043C5.62941 23.4207 8.00197 25.7932 10.9182 25.7932H19.5057C22.4222 25.7932 24.7947 23.4206 24.7947 20.5043V11.9169C24.7948 9.00061 22.4222 6.62793 19.5057 6.62793ZM23.0955 20.504C23.0955 22.4827 21.4856 24.0925 19.5069 24.0925H10.9193C8.94069 24.0926 7.33094 22.4827 7.33094 20.504V11.9165C7.33094 9.93792 8.94069 8.32805 10.9193 8.32805H19.5068C21.4855 8.32805 23.0954 9.93792 23.0954 11.9165V20.504H23.0955ZM10.1929 16.2104C10.1929 13.4425 12.4446 11.1908 15.2124 11.1908C17.9801 11.1908 20.2318 13.4425 20.2318 16.2104C20.2318 18.9781 17.9801 21.2298 15.2124 21.2298C12.4446 21.2298 10.1929 18.9781 10.1929 16.2104ZM15.2124 19.503C13.3978 19.503 11.9213 18.0267 11.9213 16.212C11.9213 14.3972 13.3977 12.9208 15.2124 12.9208C17.0272 12.9208 18.5036 14.3972 18.5036 16.212C18.5036 18.0267 17.0271 19.503 15.2124 19.503Z" fill="white"/>
</mask>
<g mask="url(#mask0_10_526)">
<rect x="3.5" y="4.49902" width="23.4243" height="23.4243" fill="#393939"/>
</g>
</svg>
