<svg width="32" height="32" viewBox="0 0 32 32" fill="none" xmlns="http://www.w3.org/2000/svg">
<path d="M17.4986 24.0002V16.7024H19.995L20.3695 13.8575H17.4986V12.0414C17.4986 11.218 17.7308 10.6569 18.936 10.6569L20.4706 10.6562V8.11163C20.2052 8.0778 19.2942 8.00024 18.2339 8.00024C16.0198 8.00024 14.504 9.32582 14.504 11.7597V13.8575H12V16.7024H14.504V24.0002H17.4986Z" fill="#393939"/>
<mask id="mask0_10_521" style="mask-type:alpha" maskUnits="userSpaceOnUse" x="12" y="8" width="9" height="17">
<path d="M17.4986 24.0002V16.7024H19.995L20.3695 13.8575H17.4986V12.0414C17.4986 11.218 17.7308 10.6569 18.936 10.6569L20.4706 10.6562V8.11163C20.2052 8.0778 19.2942 8.00024 18.2339 8.00024C16.0198 8.00024 14.504 9.32582 14.504 11.7597V13.8575H12V16.7024H14.504V24.0002H17.4986Z" fill="white"/>
</mask>
<g mask="url(#mask0_10_521)">
<rect x="4.99998" y="5.00024" width="22" height="22" fill="#393939"/>
</g>
</svg>
