<svg width="18" height="16" viewBox="0 0 18 16" fill="none" xmlns="http://www.w3.org/2000/svg">
<path d="M12.75 0.5C11.3 0.5 9.90833 1.175 9 2.24167C8.09167 1.175 6.7 0.5 5.25 0.5C2.68333 0.5 0.666667 2.51667 0.666667 5.08333C0.666667 8.23333 3.5 10.8 7.79167 14.7L8.32707 15.1837C8.70888 15.5287 9.29013 15.5276 9.67063 15.1812L10.2083 14.6917C14.5 10.8 17.3333 8.23333 17.3333 5.08333C17.3333 2.51667 15.3167 0.5 12.75 0.5ZM9.08333 13.4583L9 13.5417L8.91667 13.4583C4.95 9.86667 2.33333 7.49167 2.33333 5.08333C2.33333 3.41667 3.58333 2.16667 5.25 2.16667C6.26299 2.16667 7.25521 2.68069 7.84551 3.45874C8.12838 3.83158 8.53352 4.13333 9.00151 4.13333V4.13333C9.47214 4.13333 9.87887 3.82807 10.163 3.45289C10.7498 2.67812 11.7396 2.16667 12.75 2.16667C14.4167 2.16667 15.6667 3.41667 15.6667 5.08333C15.6667 7.49167 13.05 9.86667 9.08333 13.4583Z" fill="#111113" fill-opacity="0.4"/>
</svg>
